#N canvas 1081 78 803 759 10;
#X declare -lib mrpeach;
#X obj 131 39 import mrpeach;
#X obj 331 57 metro 30;
#X floatatom 262 101 5 0 0 0 - - -;
#X obj 261 141 osc~;
#X obj 259 171 snapshot~;
#X obj 263 221 * 50;
#X floatatom 265 260 5 0 0 0 - - -;
#X obj 266 301 + 100;
#X obj 271 340 i;
#X msg 269 380 send /y \$1;
#X floatatom 417 96 5 0 0 0 - - -;
#X obj 416 136 osc~;
#X obj 416 176 snapshot~;
#X floatatom 420 255 5 0 0 0 - - -;
#X obj 426 335 i;
#X obj 418 216 * 200;
#X obj 421 296 + 5;
#X msg 424 375 send /t \$1;
#X obj 184 431 packOSC;
#X obj 192 523 udpsend;
#X msg 266 459 connect 192.168.1.77 12001;
#X obj 346 11 tgl 15 0 empty empty empty 17 7 0 10 -262144 -1 -1 0
1;
#X obj 56 71 hsl 128 15 0 127 0 0 empty empty empty -2 -8 0 10 -262144
-1 -1 1100 1;
#X obj 482 51 hsl 128 15 0 127 0 0 empty empty empty -2 -8 0 10 -262144
-1 -1 400 1;
#X connect 1 0 4 0;
#X connect 1 0 12 0;
#X connect 2 0 3 0;
#X connect 3 0 4 0;
#X connect 4 0 5 0;
#X connect 5 0 6 0;
#X connect 6 0 7 0;
#X connect 7 0 8 0;
#X connect 8 0 9 0;
#X connect 9 0 18 0;
#X connect 10 0 11 0;
#X connect 11 0 12 0;
#X connect 12 0 15 0;
#X connect 13 0 16 0;
#X connect 14 0 17 0;
#X connect 15 0 13 0;
#X connect 16 0 14 0;
#X connect 17 0 18 0;
#X connect 18 0 19 0;
#X connect 20 0 19 0;
#X connect 21 0 1 0;
#X connect 22 0 2 0;
#X connect 23 0 10 0;
